<svg xmlns="http://www.w3.org/2000/svg" viewBox="0 0 256 256">
  <defs>
    <!-- Detailed Anatomical Bone Template -->
    <path id="bone" d="M 20,116 C 0,100 -10,120 0,128 C -10,136 0,156 20,140 L 236,140 C 256,156 266,136 256,128 C 266,120 256,100 236,116 Z" fill="#ffffff" />
  </defs>

  <!-- Solid Black Background -->
  <rect width="256" height="256" rx="48" fill="#000000" />

  <!-- Detailed Bones (Flat White) -->
  <g transform="translate(128, 140) rotate(45) translate(-128, -128)">
    <use href="#bone" />
  </g>
  <g transform="translate(128, 140) rotate(-45) translate(-128, -128)">
    <use href="#bone" />
  </g>

  <!-- Solid White Skull -->
  <path d="M 128 60 C 60 60 50 120 60 140 C 65 150 70 160 80 165 L 80 190 C 80 200 90 205 100 205 L 156 205 C 166 205 176 200 176 190 L 176 165 C 186 160 191 150 196 140 C 206 120 196 60 128 60 Z" fill="#ffffff" />

  <!-- Simple Teeth Grid -->
  <line x1="88" y1="185" x2="168" y2="185" stroke="#000000" stroke-width="6" />
  <line x1="104" y1="172" x2="104" y2="200" stroke="#000000" stroke-width="6" />
  <line x1="120" y1="172" x2="120" y2="202" stroke="#000000" stroke-width="6" />
  <line x1="136" y1="172" x2="136" y2="202" stroke="#000000" stroke-width="6" />
  <line x1="152" y1="172" x2="152" y2="200" stroke="#000000" stroke-width="6" />

  <!-- Solid Black Eyes -->
  <circle cx="104" cy="140" r="18" fill="#000000" />
  <circle cx="152" cy="140" r="18" fill="#000000" />

  <!-- Solid Black Play Button Nose -->
  <polygon points="120,162 120,182 136,172" fill="#000000" />

  <!-- Flat Straw Hat -->
  <path d="M 68 85 C 68 -20 188 -20 188 85 Z" fill="#facc15" />
  <path d="M 72 60 L 184 60 L 188 85 L 68 85 Z" fill="#ef4444" />
  <ellipse cx="128" cy="85" rx="116" ry="14" fill="#facc15" />
</svg>